<svg width="31" height="31" viewBox="0 0 31 31" fill="none" xmlns="http://www.w3.org/2000/svg">
<path d="M6.00054 3.485L5.88053 3.60643L11.137 8.87643C10.3452 10.1396 9.92863 11.6063 9.93691 13.1021C9.90115 14.1073 10.0715 15.1091 10.4372 16.0444C10.8029 16.9797 11.356 17.8282 12.0617 18.5366C12.7675 19.245 13.6105 19.7978 14.5378 20.1603C15.4651 20.5228 16.4565 20.6871 17.4496 20.6429C18.9191 20.6419 20.3585 20.221 21.602 19.4286L26.8705 24.735C25.4576 26.591 23.6384 28.0899 21.5559 29.114C19.4735 30.138 17.1846 30.6591 14.8694 30.6364C12.9146 30.6477 10.977 30.2666 9.16873 29.5153C7.36046 28.764 5.71738 27.6573 4.33456 26.2593C2.95175 24.8612 1.85665 23.1997 1.11263 21.3706C0.368605 19.5416 -0.00957043 17.5814 -1.8581e-05 15.6036C-0.0230016 13.2466 0.509295 10.918 1.55279 8.81054C2.59629 6.70312 4.12096 4.87755 6.00054 3.485ZM8.97682 1.51786C10.9823 0.567483 13.1709 0.0781547 15.3854 0.085005C17.3435 0.0656052 19.2859 0.440926 21.0991 1.18907C22.9124 1.93722 24.5602 3.04321 25.9466 4.44254C27.3329 5.84187 28.43 7.50651 29.1738 9.33936C29.9176 11.1722 30.2932 13.1366 30.2788 15.1179C30.2862 17.3495 29.8067 19.5553 28.8747 21.5779L24.1462 16.8179C24.9454 15.5625 25.3626 14.0974 25.3463 12.6043C25.3764 11.6085 25.2044 10.617 24.8408 9.69119C24.4772 8.76535 23.9298 7.92478 23.2324 7.22146C22.5351 6.51814 21.7026 5.967 20.7864 5.60211C19.8702 5.23722 18.8897 5.06633 17.9056 5.1C16.4273 5.09163 14.9777 5.5131 13.7293 6.31429L8.97682 1.51786ZM18.0017 17.0607C17.4074 17.0827 16.815 16.9807 16.2614 16.7611C15.7078 16.5414 15.2048 16.2088 14.7838 15.7839C14.3627 15.359 14.0326 14.851 13.8141 14.2914C13.5955 13.7319 13.4931 13.1328 13.5132 12.5314C13.4931 11.9301 13.5955 11.331 13.8141 10.7715C14.0326 10.2119 14.3627 9.70387 14.7838 9.27899C15.2048 8.8541 15.7078 8.52147 16.2614 8.30181C16.815 8.08214 17.4074 7.98013 18.0017 8.00215C18.5959 7.98013 19.1883 8.08214 19.7419 8.30181C20.2955 8.52147 20.7985 8.8541 21.2195 9.27899C21.6406 9.70387 21.9707 10.2119 22.1893 10.7715C22.4078 11.331 22.5102 11.9301 22.4901 12.5314C22.5102 13.1328 22.4078 13.7319 22.1893 14.2914C21.9707 14.851 21.6406 15.359 21.2195 15.7839C20.7985 16.2088 20.2955 16.5414 19.7419 16.7611C19.1883 16.9807 18.5959 17.0827 18.0017 17.0607Z" fill="#00ABE4"/>
</svg>
